<?xml version="1.0" encoding="UTF-8"?>
<svg id="Layer_1" data-name="Layer 1" xmlns="http://www.w3.org/2000/svg" xmlns:xlink="http://www.w3.org/1999/xlink" viewBox="0 0 936.89 463.58">
  <defs>
    <style>
      .cls-1 {
        fill: url(#linear-gradient);
      }

      .cls-1, .cls-2, .cls-3, .cls-4, .cls-5, .cls-6 {
        stroke-width: 0px;
      }

      .cls-2 {
        fill: url(#linear-gradient-2);
      }

      .cls-3 {
        fill: url(#linear-gradient-3);
      }

      .cls-4 {
        fill: #86d3e4;
      }

      .cls-5 {
        fill: #fff;
      }

      .cls-6 {
        fill: #005f71;
      }
    </style>
    <linearGradient id="linear-gradient" x1="244.92" y1="107.74" x2="615.14" y2="107.74" gradientUnits="userSpaceOnUse">
      <stop offset=".25" stop-color="#70cde3"/>
      <stop offset="1" stop-color="#a6a1ba"/>
    </linearGradient>
    <linearGradient id="linear-gradient-2" x1="344.29" y1="70.49" x2="358.1" y2="70.49" xlink:href="#linear-gradient"/>
    <linearGradient id="linear-gradient-3" x1="292.41" y1="80.11" x2="301.69" y2="80.11" xlink:href="#linear-gradient"/>
  </defs>
  <rect class="cls-6" x="-4.49" y="0" width="944.25" height="463.58"/>
  <g>
    <path class="cls-5" d="M100.64,166.92c39.75,0,60.42,15.27,60.42,41.77,0,14.37-4.72,23.58-14.37,28.75,14.82,6.74,23.36,19.54,23.36,38.63,0,29.65-20.66,50.76-65.13,50.76-26.95,0-48.29-4.04-58.4-8.53v-142.84c10.11-4.49,31.67-8.53,54.13-8.53ZM100.64,225.31c26.5,0,30.32-6.74,30.32-16.62s-3.82-16.62-30.32-16.62c-6.51,0-15.27.45-24.03,1.35v31.89h24.03ZM104.91,301.68c28.52,0,35.04-11.23,35.04-25.6s-6.51-25.6-35.04-25.6h-28.3v49.86c9.66.9,19.54,1.35,28.3,1.35h0Z"/>
    <path class="cls-5" d="M214.39,323.24h-28.75v-157.22h28.75v157.22Z"/>
    <path class="cls-5" d="M278.34,326.83c-27.63,0-45.14-17.97-45.14-50.76v-65.13h28.75v65.13c0,18.42,7.19,27.18,23.36,27.18s23.36-8.76,23.36-27.18v-65.13h28.75v112.3h-19.76l-4.72-9.66c-7.64,8.76-19.09,13.25-34.59,13.25h0Z"/>
    <path class="cls-5" d="M409.54,207.35c28.07,0,52.56,18.64,52.56,47.84,0,6.96-.67,14.37-3.82,22.46h-74.57c2.7,15.95,12.13,24.48,37.06,24.48,9.88,0,23.81-1.57,30.55-2.7v21.11c-6.29,3.14-20.44,6.29-30.55,6.29-46.04,0-67.38-21.79-67.38-59.74s21.34-59.74,56.15-59.74ZM435.37,256.53c-2.25-15.95-10.33-24.48-25.83-24.48s-23.58,8.53-25.83,24.48h51.66Z"/>
    <path class="cls-5" d="M502.18,298.31c-.67.45-.9,1.12-.9,1.8,0,1.8,1.57,2.47,5.39,3.14l48.96,9.21c14.82,2.69,24.26,9.88,24.26,25.6,0,22.46-18.87,33.69-55.48,33.69s-53.68-10.33-53.68-30.77c0-9.66,5.39-16.62,13.03-21.11-4.94-4.27-6.74-10.11-6.74-16.62,0-6.96,2.7-12.8,7.64-16.4-6.51-7.86-9.88-18.64-9.88-32.34,0-31.44,17.52-47.17,50.53-47.17l48.06-14.37v23.36l-11.23,2.02c8.98,7.86,13.7,19.99,13.7,36.16,0,31.44-17.52,47.17-50.53,47.17-8.76,0-16.62-1.12-23.13-3.37h0ZM524.41,347.05c17.07,0,26.05-.9,26.05-6.06,0-2.92-2.47-4.94-6.06-5.62l-37.96-7.19c-5.61.67-7.86,3.37-7.86,8.31,0,8.53,8.76,10.56,25.83,10.56h0ZM525.31,276.97c14.6,0,20.89-7.64,20.89-22.46s-6.29-22.46-20.89-22.46-20.89,7.64-20.89,22.46,6.29,22.46,20.89,22.46Z"/>
    <path class="cls-5" d="M636.3,326.83c-27.63,0-45.14-17.97-45.14-50.76v-65.13h28.75v65.13c0,18.42,7.19,27.18,23.36,27.18s23.36-8.76,23.36-27.18v-65.13h28.75v112.3h-19.76l-4.72-9.66c-7.64,8.76-19.09,13.25-34.59,13.25h0Z"/>
    <path class="cls-5" d="M772.58,207.35c14.6,0,26.5,5.17,34.14,15.27,7.41-10.11,19.99-15.27,36.83-15.27,25.38,0,42.9,15.72,42.9,46.27v69.62h-28.75v-69.62c0-15.5-7.19-22.68-21.11-22.68s-21.11,7.19-21.11,22.68v69.62h-28.75v-69.62c0-15.5-7.19-22.68-21.11-22.68s-21.11,7.19-21.11,22.68v69.62h-28.75v-112.3h19.76l4.27,8.53c7.19-8.09,18.19-12.13,32.79-12.13h0Z"/>
  </g>
  <g id="mHFVT0.tif">
    <g>
      <path class="cls-1" d="M443.5,146.26c-4.88-1.54-9.89-2.37-14.97-2.94-8.39-.94-16.76-2.13-25.15-3.05-4.8-.52-9.62-.83-14.45-1.02-4.87-.2-9.75-.09-14.62-.2-3.11-.07-6.22-.35-9.33-.4-3.03-.05-6.06.07-9.09.11-1.83.02-3.67,0-5.5.02-3.32.02-6.65.04-9.97.05-.19,0-.38-.04-.84-.09,1.08-1.14,2-2.16,2.96-3.13,4.67-4.7,10.55-7.53,16.65-10,3.39-1.37,6.92-2.36,10.53-2.94,5.29-.85,10.68-1.4,16.06-1.54,4.59-.12,9.2.13,13.79.33,4.05.17,8.11.32,12.12.8,3.16.37,6.26,1.24,9.39,1.86,1.67.33,3.37.5,5.02.89,4.31,1.02,8.61,2.1,12.9,3.2,3.16.81,6.32,1.63,9.45,2.56,3.02.9,6.01,1.91,9,2.94,8.27,2.86,16.57,5.67,24.78,8.71,3.34,1.23,6.59,2.67,9.79,4.23,8.7,4.24,17.45,8.41,25.92,13.08,6.73,3.72,13.16,8.02,19.56,12.29,4.31,2.88,8.36,6.16,12.39,9.59-1.69-.43-3.39-.85-5.08-1.29-1.95-.5-3.89-1.06-5.85-1.51-3.62-.83-7.25-1.63-10.89-2.4-2.42-.51-4.85-1.03-7.29-1.41-3.77-.59-7.56-1.06-11.34-1.58-7.42-1.01-14.84-2.08-22.27-3.03-3.38-.43-6.77-.77-10.17-.98-3.72-.23-7.44-.68-11.16-.84-4.59-.19-9.19-.24-13.79-.39-1.99-.07-3.98-.31-5.97-.35-3.86-.08-7.72-.07-11.58-.11-3-.03-6-.12-9-.11-2.88.01-5.77.15-8.65.17-2.17.01-4.35-.08-6.52-.11-4.52-.05-9.03-.07-13.55-.14-.52,0-1.03-.04-1.55-.08-4.23-.36-8.5-.48-12.68-1.13-6.15-.95-12.25-2.15-18.25-3.92-6.04-1.77-11.67-4.35-17.24-7.15-4.84-2.43-9.5-5.22-14.52-7.26-.34-.14-.69-.23-1.05-.27-4.55-.6-9.22-1.13-13.82-.96-2.82.11-5.65.91-8.39,1.69-7.44,2.11-14.21,5.67-20.64,9.89-3.97,2.6-8,5.14-11.87,7.89-5.81,4.13-11.6,8.29-17.19,12.71-2.63,2.08-4.72,4.82-7.12,7.19-.5.49-1.26,1.02-1.9,1.01-1.66-.02-3.33-.3-4.98-.53-.21-.03-.39-.35-.63-.58,3.81-2.71,7.54-5.34,11.24-8,1.98-1.43,3.89-2.95,5.88-4.38,4.56-3.28,9.15-6.52,13.72-9.79,1.46-1.05,3.8-2.84,5.21-3.97,6.36-5.1,12.9-9.93,19.95-14.08,4.56-2.69,7.93-6.44,9.96-11.46,1.65-4.08,3.97-7.89,5.69-11.95,1.2-2.83,2.14-5.83,2.74-8.84.64-3.26-.78-6.23-2.36-9.04-.35-.61-.89-1.11-1.27-1.71-1.73-2.69-4.4-2.57-7.13-2.59-2.2-.02-4.42-.3-6.59-.66-1.71-.28-2.77-1.58-3.52-3.04-1.19-2.34-2.25-4.75-3.43-7.11-.47-.94-1.08-1.81-1.58-2.63,5.04-1.12,8.69-4.6,11.07-9.73.01,0,.31-.02.37.09,1.42,2.55,3.92,3.87,6.36,4.96,4.45,1.98,6.1,6.27,4.54,10.87-1.08,3.19-.51,5.94,1.53,8.77,1.82,2.52,2.88,5.58,4.29,8.4.1.21.26.39.5.76.91-1.31,1.81-2.46,2.56-3.72,1.62-2.71,3.18-5.46,4.72-8.22,1.05-1.89-.09-3.63-.55-5.39-.59-2.24-1.61-4.4-1.95-6.67-.71-4.71.91-8.52,5.1-11.11,3.62-2.24,6.8-4.95,8.64-9.25,1.56,4,4.42,6.56,7.6,8.78,3.16,2.21,6.74,3.45,10.71,3.89-2.3,1.73-3.56,3.97-4.33,6.5-.7,2.28-1.34,4.59-1.94,6.9-1,3.85-5.79,6.68-9.46,6.82-2.2.09-4.39.31-6.59.37-3.03.08-5.21,1.68-6.83,3.98-5.88,8.36-11.52,16.89-14.07,27.26-1.61.62-2.32,2.41-2.56,4.11-.26,1.87.62,2.58,2.42,1.79,2.99-1.32,5.9-2.8,8.85-4.2,5.77-2.74,11.54-5.47,17.33-8.19,5.04-2.37,10.06-4.77,15.14-7.03,5.41-2.41,10.73-5.15,16.36-6.92,10.21-3.21,20.55-6.05,30.97-8.54,5.49-1.31,11.25-1.53,16.89-2.25,6.3-.8,12.61-1.5,18.89-2.44,11.05-1.66,22-3.83,32.77-6.84,9.14-2.55,18.29-5.1,27.39-7.8,5.64-1.67,11.25-3.48,16.78-5.46,5.12-1.83,10.13-3.94,15.17-5.98.78-.31,1.46-.87,2.18-1.32-.08-.22-.17-.44-.25-.67-1.03.16-2.1.19-3.08.51-6.42,2.11-12.81,4.34-19.23,6.43-12.4,4.04-24.79,8.07-37.64,10.54-5.05.97-10.01,2.38-15.07,3.26-9.43,1.65-18.89,3.09-28.35,4.57-3.16.49-6.32,1.03-9.51,1.23-4.14.26-8.31.19-12.7.27.83-3.25,2.8-5.27,4.61-7.29,1.94-2.15,4.15-4.09,6.39-5.94,3.96-3.29,8.5-5.65,13.27-7.53,4.68-1.84,9.37-3.68,14.16-5.19,5.08-1.6,10.28-2.85,15.47-4.11,2.69-.66,5.4-1.25,8.12-1.75,7.13-1.31,14.29-2.52,21.45-3.67,5.6-.9,11.22-1.65,16.82-2.54,6.56-1.04,13.16-1.95,19.66-3.29,9.77-2.02,19.48-4.31,29.19-6.62,11.87-2.82,23.44-6.62,34.78-11.09,6.87-2.7,13.67-5.57,20.51-8.34.66-.26,1.41-.3,2.11-.44.06.13.12.25.18.38-2.48,2.41-4.9,4.88-7.45,7.21-3.42,3.12-6.86,6.24-10.46,9.16-3.76,3.05-7.63,5.99-11.62,8.73-7.44,5.11-14.95,10.12-22.52,15.04-10.84,7.04-22.28,13.05-33.8,18.88-6.18,3.12-12.54,5.9-18.9,8.63-5.63,2.42-11.32,4.73-17.1,6.78-9,3.18-18.16,5.86-27.57,7.68-5.7,1.1-11.43,1.6-17.22,1.92-6.44.35-12.77-.34-18.97-1.67-3.04-.65-6.01-1.55-8.93-2.62-4.7-1.72-9.37-3.32-14.34-3.43-4.13-.09-8.15.84-12.1,2-6.75,1.97-13.5,3.95-20.19,6.09-2.52.81-5.01,1.72-7.47,2.69-5.73,2.26-11.45,4.55-17.05,7.1-6.73,3.07-13.39,6.3-19.95,9.73-5.28,2.76-10.36,5.92-15.52,8.91-1.79,1.04-3.57,2.09-5.34,3.16-.36.22-.67.54-.86,1.16.79-.01,1.58.03,2.36-.05,6.12-.68,12.23-1.54,18.37-2.03,6.17-.5,12.36-.63,18.55-.95,3.36-.18,6.71-.49,10.07-.61,2.27-.08,4.55.12,6.82.12,3.99,0,7.98-.1,11.97-.12,2.08-.01,4.16.02,6.23.1,4.32.15,8.64.35,12.96.53,13.29.55,26.49,2.14,39.69,3.7,2.85.34,5.7.7,8.55,1.05l4.82,1.05c.55.09,1.1.18,1.65.27l6.86.77c-1.87-1.27-3.71-1.63-5.62-1.71l-4.05-1.05-3.49-.67Z"/>
      <path class="cls-2" d="M356.53,75.84c-3.93-.9-6.94-2.65-9.48-5.18-.95-.94-1.77-2.03-2.52-3.14-.26-.4-.35-1.25-.1-1.57.36-.44,1.14-.88,1.67-.8,2.9.43,5.4,1.92,7.65,3.66,1.56,1.21,2.82,2.84,4.06,4.41.35.45.38,1.45.11,1.99-.21.42-1.09.52-1.39.64Z"/>
      <path class="cls-3" d="M292.41,83.84c.15-1.84,1.27-3.29,2.56-4.4,1.52-1.32,3.36-2.28,5.11-3.3.4-.23,1.04-.06,1.57-.07-.01.56.14,1.2-.07,1.67-1.02,2.24-2.7,3.92-4.7,5.32-1.36.95-2.76,1.58-4.48.79Z"/>
    </g>
  </g>
  <g>
    <path class="cls-4" d="M240.93,384.51h-11.7l-2.91,8.06h-8.68l13.5-37.35h7.9l13.5,37.35h-8.68l-2.91-8.06ZM235.05,366.14l-3.92,12.04h7.9l-3.98-12.04Z"/>
    <path class="cls-4" d="M280.52,355.22c5.43,0,10.81,2.97,10.81,9.35,0,3.7-1.79,6.72-4.37,8.12,3.64,1.23,6.05,4.98,6.05,9.63,0,6.38-5.21,10.25-11.26,10.25h-18.7v-37.35h17.47ZM279.24,370.01c2.3-.06,4.48-1.18,4.48-3.64,0-2.69-2.46-3.98-4.98-3.98h-7.67v7.62h8.18ZM279.96,385.41c3.02,0,5.38-1.62,5.38-4.48,0-3.36-2.69-4.65-6.1-4.65h-8.18v9.13h8.9Z"/>
    <path class="cls-4" d="M304.88,392.58v-37.35h8.01v37.35h-8.01Z"/>
    <path class="cls-4" d="M352.71,392.58h-26.49v-37.35h8.06v30.18h18.42v7.17Z"/>
    <path class="cls-4" d="M364.3,392.58v-37.35h8.01v37.35h-8.01Z"/>
    <path class="cls-4" d="M412.01,362.45h-9.86v30.13h-8.12v-30.13h-9.8v-7.22h27.78v7.22Z"/>
    <path class="cls-4" d="M429.82,355.22l7.67,18.2c2.63-5.99,5.49-12.21,8.18-18.2h8.74l-12.99,26.43v10.92h-8.23v-10.86l-12.1-26.49h8.74Z"/>
    <path class="cls-4" d="M595.35,380.31c3.7,3.7,9.35,5.54,13.94,5.54,2.58,0,5.71-.9,5.71-4.03,0-2.02-2.46-2.91-5.6-3.81-5.99-1.85-14.45-3.25-14.45-12.38,0-7.39,7.11-10.92,13.89-10.92,4.37,0,9.07,1.57,12.54,4.65v8.01c-3.47-3.58-8.4-5.49-12.54-5.49-2.8,0-6.27.84-6.27,4.2,0,2.52,3.25,3.42,7.06,4.42,5.94,1.57,13.38,3.53,13.38,11.76,0,7.5-7.39,10.81-14.17,10.81-4.65,0-9.8-1.57-13.5-4.76v-8.01Z"/>
    <path class="cls-4" d="M661.2,377.9h-18.14v7.95h19.1v6.72h-27.22v-37.35h27.22v7.17h-19.1v7.9h18.14v7.62Z"/>
    <path class="cls-4" d="M691.89,355.22c6.27,0,11.26,4.82,11.26,12.77,0,5.32-3.3,9.07-7.9,10.58l8.85,14h-9.13l-7.95-13.1h-4.59v13.1h-8.06v-37.35h17.53ZM689.65,372.64c3.02,0,5.38-1.68,5.38-4.65,0-3.64-2.3-5.54-5.38-5.54h-7.22v10.19h7.22Z"/>
    <path class="cls-4" d="M739.44,355.22h9.07l-14.39,37.35h-7.5l-13.94-37.35h9.07l8.9,24.58,8.79-24.58Z"/>
    <path class="cls-4" d="M759.04,392.58v-37.35h8.01v37.35h-8.01Z"/>
    <path class="cls-4" d="M808.6,390.56c-3.02,1.62-6.33,2.52-9.58,2.52-11.14,0-20.05-8.57-20.05-19.15s8.9-19.21,20.05-19.21c3.25,0,6.55.9,9.58,2.52v8.01c-3.08-1.96-6.38-2.91-9.58-2.91-6.61,0-11.98,5.21-11.98,11.59s5.38,11.54,11.98,11.54c3.08,0,6.44-1.06,9.58-2.97v8.06Z"/>
    <path class="cls-4" d="M848.47,377.9h-18.14v7.95h19.1v6.72h-27.22v-37.35h27.22v7.17h-19.1v7.9h18.14v7.62Z"/>
    <path class="cls-4" d="M862.02,380.31c3.7,3.7,9.35,5.54,13.94,5.54,2.58,0,5.71-.9,5.71-4.03,0-2.02-2.46-2.91-5.6-3.81-5.99-1.85-14.45-3.25-14.45-12.38,0-7.39,7.11-10.92,13.89-10.92,4.37,0,9.07,1.57,12.54,4.65v8.01c-3.47-3.58-8.4-5.49-12.54-5.49-2.8,0-6.27.84-6.27,4.2,0,2.52,3.25,3.42,7.06,4.42,5.94,1.57,13.38,3.53,13.38,11.76,0,7.5-7.39,10.81-14.17,10.81-4.65,0-9.8-1.57-13.5-4.76v-8.01Z"/>
  </g>
</svg>